<svg width="20" height="22" viewBox="0 0 20 22" fill="none" xmlns="http://www.w3.org/2000/svg">
<path d="M16.7959 5.91406H8.08153C7.80668 5.91477 7.53467 5.96966 7.28106 6.0756C7.02745 6.18153 6.79721 6.33643 6.60352 6.53143C6.40983 6.72643 6.25648 6.9577 6.15226 7.21202C6.04803 7.46634 5.99497 7.73872 5.99611 8.01356V18.9422C5.99611 20.1014 6.92995 21.0417 8.08153 21.0417H16.7959C17.0707 21.041 17.3427 20.9861 17.5963 20.8802C17.8499 20.7743 18.0802 20.6194 18.2739 20.4244C18.4676 20.2294 18.6209 19.9981 18.7251 19.7438C18.8294 19.4894 18.8824 19.2171 18.8813 18.9422V8.01356C18.8813 6.8544 17.9474 5.91406 16.7959 5.91406Z" fill="white" stroke="black" stroke-width="1.625" stroke-linecap="round" stroke-linejoin="round"/>
<path d="M13.8852 5.914V3.0995C13.8852 2.54267 13.6653 2.00858 13.2742 1.61533C13.0811 1.42065 12.8514 1.26606 12.5984 1.16046C12.3454 1.05486 12.0739 1.00032 11.7998 1H3.08542C2.53292 1 2.00208 1.221 1.61208 1.61533C1.2207 2.01023 1.00077 2.54351 1 3.0995V14.0282C1 14.585 1.21992 15.1191 1.611 15.5123C2.00208 15.9056 2.53183 16.1277 3.08542 16.1277H5.99417" stroke="black" stroke-width="1.625" stroke-linecap="round" stroke-linejoin="round"/>
</svg>
