<svg width="40" height="40" viewBox="0 0 40 40" fill="none" xmlns="http://www.w3.org/2000/svg">
<rect width="40" height="40" rx="4" fill="white"/>
<path d="M33.7374 17.856H32.65V17.8H20.5V23.2H28.1295C27.0165 26.3435 24.0255 28.6 20.5 28.6C16.0268 28.6 12.4 24.9732 12.4 20.5C12.4 16.0268 16.0268 12.4 20.5 12.4C22.5648 12.4 24.4434 13.1789 25.8737 14.4513L29.6922 10.6329C27.2811 8.38578 24.0559 7 20.5 7C13.0446 7 7 13.0446 7 20.5C7 27.9554 13.0446 34 20.5 34C27.9554 34 34 27.9554 34 20.5C34 19.5948 33.9069 18.7113 33.7374 17.856Z" fill="#FFC107"/>
<path d="M8.55469 14.2164L12.9901 17.4693C14.1903 14.4979 17.0968 12.4 20.4981 12.4C22.563 12.4 24.4415 13.1789 25.8718 14.4513L29.6903 10.6329C27.2792 8.38578 24.054 7 20.4981 7C15.3128 7 10.8159 9.92747 8.55469 14.2164Z" fill="#FF3D00"/>
<path d="M20.4988 33.9999C23.9859 33.9999 27.1543 32.6654 29.5499 30.4953L25.3717 26.9596C23.971 28.0255 22.259 28.6018 20.4988 28.5999C16.9875 28.5999 14.006 26.3609 12.8828 23.2363L8.48047 26.6282C10.7147 31.0002 15.2521 33.9999 20.4988 33.9999Z" fill="#4CAF50"/>
<path d="M33.7374 17.8563H32.65V17.8003H20.5V23.2003H28.1295C27.5971 24.6964 26.638 26.0037 25.3708 26.9607L25.3728 26.9594L29.5511 30.495C29.2554 30.7637 34 27.2503 34 20.5003C34 19.5951 33.9069 18.7115 33.7374 17.8563Z" fill="#1976D2"/>
</svg>
